<?xml version="1.0" encoding="utf-8"?>
<!-- Generator: Adobe Illustrator 23.0.5, SVG Export Plug-In . SVG Version: 6.00 Build 0)  -->
<svg version="1.1" id="圖層_1" xmlns="http://www.w3.org/2000/svg" xmlns:xlink="http://www.w3.org/1999/xlink" x="0px" y="0px"
	 viewBox="0 0 100 100" style="enable-background:new 0 0 100 100;" xml:space="preserve">
<style type="text/css">
	.st0{clip-path:url(#SVGID_2_);}
	.st1{fill:#9276FF;}
</style>
<g>
	<defs>
		<rect id="SVGID_1_" width="100" height="100"/>
	</defs>
	<clipPath id="SVGID_2_">
		<use xlink:href="#SVGID_1_"  style="overflow:visible;"/>
	</clipPath>
	<g class="st0">
		<path class="st1" d="M50,24.4c-14.2,0-25.6,11.4-25.6,25.6S35.8,75.6,50,75.6c14.2,0,25.6-11.4,25.6-25.6S64.2,24.4,50,24.4z
			 M50,66.7c-9.2,0-16.7-7.5-16.7-16.7S40.8,33.3,50,33.3c9.2,0,16.7,7.5,16.7,16.7S59.2,66.7,50,66.7z M82.7,23.3c0,3.3-2.7,6-6,6
			c-3.3,0-6-2.7-6-6s2.7-6,6-6C80,17.3,82.7,20,82.7,23.3z M99.6,29.4c-0.4-8-2.2-15.1-8.1-21c-5.8-5.8-12.9-7.7-20.9-8.1
			c-8.3-0.5-33-0.5-41.2,0c-8,0.4-15.1,2.2-20.9,8.1c-5.9,5.8-7.7,12.9-8.1,21c-0.5,8.3-0.5,33,0,41.3c0.4,8,2.2,15.1,8.1,21
			c5.9,5.8,12.9,7.7,20.9,8.1c8.3,0.5,33,0.5,41.2,0c8-0.4,15.1-2.2,20.9-8.1c5.8-5.8,7.7-12.9,8.1-21
			C100.1,62.4,100.1,37.6,99.6,29.4z M89,79.5c-1.7,4.4-5.1,7.7-9.5,9.5c-6.6,2.6-22.2,2-29.5,2c-7.3,0-22.9,0.6-29.5-2
			c-4.4-1.7-7.7-5.1-9.5-9.5C8.4,72.9,9,57.3,9,50s-0.6-22.9,2-29.5c1.7-4.4,5.1-7.7,9.5-9.5C27.1,8.4,42.7,9,50,9
			c7.3,0,22.9-0.6,29.5,2c4.4,1.7,7.7,5.1,9.5,9.5c2.6,6.6,2,22.2,2,29.5S91.6,72.9,89,79.5z"/>
	</g>
</g>
</svg>
