<?xml version="1.0" encoding="utf-8"?>
<!-- Generator: Adobe Illustrator 23.0.5, SVG Export Plug-In . SVG Version: 6.00 Build 0)  -->
<svg version="1.1" id="圖層_1" xmlns="http://www.w3.org/2000/svg" xmlns:xlink="http://www.w3.org/1999/xlink" x="0px" y="0px"
	 viewBox="0 0 100 100" style="enable-background:new 0 0 100 100;" xml:space="preserve">
<style type="text/css">
	.st0{fill:#9276FF;}
</style>
<path class="st0" d="M33.4,77.6c0,0.4-0.5,0.7-1,0.7c-0.7,0.1-1.1-0.3-1.1-0.7c0-0.4,0.5-0.7,1-0.7C32.9,76.9,33.4,77.2,33.4,77.6z
	 M27.2,76.7c-0.1,0.4,0.3,0.8,0.9,1c0.5,0.2,1.1,0,1.3-0.4c0.1-0.4-0.3-0.8-0.9-1C27.9,76.2,27.3,76.3,27.2,76.7z M36.1,76.4
	c-0.6,0.1-1,0.5-0.9,1c0.1,0.4,0.6,0.6,1.2,0.5c0.6-0.1,1-0.5,0.9-0.9C37.2,76.6,36.7,76.3,36.1,76.4z M49.4,1.6
	C21.4,1.6,0,22.1,0,49.2c0,21.7,14.1,40.2,34.2,46.7c2.6,0.4,3.5-1.1,3.5-2.4c0-1.2-0.1-7.9-0.1-12c0,0-14.1,2.9-17.1-5.8
	c0,0-2.3-5.7-5.6-7.1c0,0-4.6-3.1,0.3-3c0,0,5,0.4,7.8,5c4.4,7.5,11.8,5.4,14.7,4.1c0.5-3.1,1.8-5.3,3.2-6.6
	c-11.3-1.2-22.6-2.8-22.6-21.6c0-5.4,1.5-8.1,4.8-11.5c-0.5-1.3-2.2-6.5,0.5-13.3c4.2-1.3,13.9,5.3,13.9,5.3c4-1.1,8.4-1.7,12.7-1.7
	c4.3,0,8.6,0.6,12.7,1.7c0,0,9.7-6.6,13.9-5.3c2.8,6.8,1,12,0.5,13.3c3.2,3.5,5.2,6.2,5.2,11.5c0,18.8-11.9,20.4-23.1,21.6
	c1.9,1.5,3.4,4.5,3.4,9.1c0,6.6-0.1,14.7-0.1,16.3c0,1.3,0.9,2.8,3.5,2.4c20.2-6.5,33.8-25,33.8-46.7C100,22.1,77.3,1.6,49.4,1.6z
	 M19.6,68.9c-0.3,0.2-0.2,0.6,0.1,1c0.3,0.3,0.8,0.4,1,0.2c0.3-0.2,0.2-0.6-0.1-1C20.3,68.8,19.9,68.7,19.6,68.9z M17.4,67.3
	c-0.1,0.3,0.1,0.6,0.5,0.8c0.3,0.2,0.7,0.1,0.9-0.1c0.1-0.3-0.1-0.6-0.5-0.8C17.9,67.1,17.6,67.1,17.4,67.3z M24,74.3
	c-0.3,0.3-0.2,0.8,0.3,1.2c0.5,0.4,1,0.5,1.3,0.2c0.3-0.3,0.1-0.8-0.3-1.2C24.8,74,24.2,74,24,74.3z M21.7,71.4
	c-0.3,0.2-0.3,0.7,0,1.2c0.3,0.4,0.9,0.6,1.1,0.4c0.3-0.3,0.3-0.8,0-1.2C22.5,71.4,22,71.2,21.7,71.4z"/>
</svg>
